<?xml version="1.0" encoding="UTF-8"?>
<svg id="Capa_6" data-name="Capa 6" xmlns="http://www.w3.org/2000/svg" viewBox="0 0 1080 1080">
  <defs>
    <style>
      .cls-1 {
        fill: #efdba6;
      }

      .cls-2 {
        fill: #f6d06e;
      }

      .cls-3 {
        fill: #f8dd96;
      }

      .cls-4 {
        fill: #6cadef;
      }

      .cls-5 {
        fill: #4a97f4;
      }

      .cls-6 {
        fill: #f7d782;
      }
    </style>
  </defs>
  <g>
    <circle class="cls-2" cx="114.01" cy="796.35" r="7.38"/>
    <circle class="cls-5" cx="198.66" cy="803" r="7.38"/>
    <circle class="cls-4" cx="278.93" cy="794.58" r="7.38"/>
    <circle class="cls-4" cx="398" cy="737.18" r="7.38"/>
    <path class="cls-4" d="m329.84,786.02c.65,32.65-31.6,25.64-31.6,25.64-3.99-.75-7.4-3.31-7.4-7.37s4.2-7.29,7.34-6.98c0,0,1.83.28,4.44,1.06h.03c3.41.89,7.84,1.35,9.28-1.46,10.45-17.72-12.45-18.47-25.61-24.83-13.13-6.36-17.01-15.81-13-25.87,15.87-30.54,47.16-9.25,48.33-8.44l.03.03c2.42,1.52,5,3.73,5,6.96,0,4.09-3.31,7.37-7.37,7.37-.78,0-1.67-.23-2.37-.44-.03,0-.03-.03-.05-.03-2.02-1.11-2.65-2.4-3.98-3.28-5.39-3.6-9.64-3.62-9.64-3.62-21.29-1.54-19.07,15.74-2.42,19.28,16.67,3.54,28.79,10.21,29.02,21.99Z"/>
    <circle class="cls-5" cx="237.59" cy="737.37" r="7.38"/>
    <path class="cls-5" d="m122.08,744.25c0,4.12-3.33,7.45-7.45,7.45-1.8,0-3.47-.63-4.74-1.69-4.69-4.12-10.81-6.62-17.56-6.62-14.69,0-26.63,11.93-26.63,26.65s11.88,26.58,26.52,26.63h.1c.36-.08.7-.1,1.09-.1.29,0,.55.03.81.03,3.75.44,6.67,3.65,6.67,7.5,0,3.62-2.55,6.67-5.91,7.4h-.05c-.81.05-1.64.08-2.48.08h-.13c-22.93,0-41.53-18.6-41.53-41.53s18.6-41.56,41.53-41.56c10.34,0,19.78,3.78,27.04,10.01.21.18.39.36.6.55,1.3,1.35,2.11,3.18,2.11,5.21Z"/>
    <path class="cls-5" d="m763.56,744.25c0,4.12-3.33,7.45-7.45,7.45-1.8,0-3.47-.63-4.74-1.69-4.69-4.12-10.81-6.62-17.56-6.62-14.69,0-26.63,11.93-26.63,26.65s11.88,26.58,26.52,26.63h.1c.36-.08.7-.1,1.09-.1.29,0,.55.03.81.03,3.75.44,6.67,3.65,6.67,7.5,0,3.62-2.55,6.67-5.91,7.4h-.05c-.81.05-1.64.08-2.48.08h-.13c-22.93,0-41.53-18.6-41.53-41.53s18.6-41.56,41.53-41.56c10.34,0,19.78,3.78,27.04,10.01.21.18.39.36.6.55,1.3,1.35,2.11,3.18,2.11,5.21Z"/>
    <path class="cls-5" d="m204.12,755.74c0-12.77-10.32-23.08-23.06-23.08h-29.44c-3,0-5.52,1.95-6.38,4.66-.23.63-.34,1.33-.34,2.03v64.41c0,4.27,3.47,7.74,7.74,7.74s7.74-3.47,7.74-7.74v-21.05h16.91c0,4.4,3.57,8,7.97,8s7.97-3.6,7.97-8c0-2.37-1.02-4.48-2.68-5.94,8-3.62,13.57-11.67,13.57-21.03Zm-24.24,12.49c-.23.03-.47.03-.7.03h-18.42v-22.04h18.42c.23,0,.47,0,.7.03,5.76.36,10.29,5.16,10.29,11s-4.53,10.63-10.29,10.99Z"/>
    <rect class="cls-5" x="229.61" y="750.73" width="15.97" height="60.93" rx="3.06" ry="3.06"/>
    <circle class="cls-1" cx="430.95" cy="737.37" r="7.38"/>
    <circle class="cls-3" cx="531.4" cy="802.32" r="7.38"/>
    <circle class="cls-6" cx="619.43" cy="738.96" r="7.38"/>
    <circle class="cls-5" cx="662.17" cy="804.32" r="7.38"/>
    <circle class="cls-2" cx="756.18" cy="796.94" r="7.38"/>
    <circle class="cls-2" cx="822.71" cy="737.37" r="7.38"/>
    <circle class="cls-2" cx="915.39" cy="802.32" r="7.38"/>
    <circle class="cls-2" cx="1021.83" cy="737.37" r="7.38"/>
    <rect class="cls-1" x="422.96" y="750.73" width="15.97" height="60.93" rx="3.06" ry="3.06"/>
    <path class="cls-4" d="m382.95,738.65s0-.02,0-.02c0-4.88-3.95-8.83-8.83-8.83h-22.54c-4.88,0-8.83,3.95-8.83,8.83s3.95,8.83,8.83,8.83h14.45v64.83h17.13v-71.5c0-.73-.08-1.45-.22-2.14Z"/>
    <path class="cls-3" d="m529.54,780.78l-.44-.96-.08-.13-21.52-44.68c-.05-.1-.12-.17-.17-.27-.12-.23-.26-.44-.4-.65-.14-.2-.27-.41-.43-.6-.16-.2-.34-.38-.52-.56-.17-.17-.35-.34-.53-.5-.19-.16-.4-.3-.61-.44-.21-.14-.42-.28-.65-.4-.09-.05-.17-.12-.27-.16-.14-.07-.28-.1-.42-.15-.23-.09-.46-.18-.69-.25-.26-.08-.52-.14-.78-.19-.22-.04-.44-.08-.67-.1-.27-.03-.54-.04-.81-.04-.23,0-.45.01-.68.03-.27.03-.53.07-.8.12-.22.04-.44.1-.66.16-.28.08-.55.18-.81.3-.12.05-.24.07-.36.13-.12.06-.22.13-.33.19-.11.06-.22.12-.33.19-.83.5-1.53,1.13-2.09,1.87,0,0,0,.01-.01.02-.31.41-.57.84-.8,1.3,0,0,0,0,0,.02l-.02.04c-.04.09-.09.18-.13.27l-30.63,63.56c-1.84,3.82-.24,8.42,3.59,10.26,3.82,1.84,8.42.24,10.26-3.59l6.91-14.35h38c.13,0,.26-.03.39-.04.1,0,.19.04.29.04,4.25,0,7.71-3.47,7.71-7.71,0-.96-.18-1.88-.5-2.71Zm-27.94-22.59l6.88,14.27c.57,1.18-.29,2.56-1.61,2.56h-12.16c-1.51,0-2.51-1.58-1.85-2.95l6.69-13.88c.41-.86,1.64-.86,2.05,0Z"/>
    <path class="cls-6" d="m626.69,807.42c.72-1.24,1.16-2.66,1.16-4.19v-41.82c0-4.56-3.42-8.65-7.97-8.89-4.86-.25-8.88,3.61-8.88,8.41v17.06c0,.71-.89,1.02-1.34.47l-36.74-45.19c-.89-1.1-2.02-1.88-3.24-2.4-1.66-.81-3.59-1.16-5.67-.64-3.89.97-6.45,4.71-6.45,8.72v63.8c0,4.56,3.42,8.65,7.97,8.89,4.86.25,8.88-3.61,8.88-8.41v-39.3c0-.71.89-1.02,1.33-.47l36.19,44.51c2.07,2.55,5.28,4.01,8.55,3.69,3.04-.3,4.6-1.77,5.73-3.47.13-.18.26-.37.38-.57.04-.07.07-.13.11-.2Z"/>
    <path class="cls-2" d="m864.24,770.02c0,22.95-18.58,41.56-41.53,41.56s-41.56-18.6-41.56-41.56c0-12.9,5.89-24.41,15.11-32.05.21-.18.44-.34.65-.5,1.28-.83,2.79-1.33,4.43-1.33,4.4,0,7.97,3.57,7.97,7.97,0,2.21-.89,4.22-2.34,5.65-.03,0-.05.03-.05.05-.39.29-.76.6-1.12.94-.03,0-.08.03-.1.05-5.32,4.72-8.65,11.57-8.65,19.2,0,14.17,11.49,25.66,25.66,25.66s25.66-11.49,25.66-25.66c0-7.92-3.6-15.01-9.28-19.72-.03-.03-.05-.05-.08-.05-1.75-1.48-2.84-3.65-2.84-6.1,0-4.4,3.57-7.97,7.97-7.97,1.59,0,3.05.44,4.27,1.25.47.36.91.73,1.35,1.09.03.03.03.05.05.08,8.83,7.58,14.41,18.86,14.41,31.42Z"/>
    <path class="cls-2" d="m955.09,768.98c0,12.61-5.99,23.81-15.29,30.93-.21.16-.39.29-.57.44-1.22.81-2.68,1.3-4.27,1.3-4.22,0-7.63-3.41-7.63-7.63,0-2.37,1.07-4.48,2.79-5.89.23-.16.44-.34.68-.52,5.37-4.43,8.81-11.13,8.81-18.63,0-13.34-10.84-24.15-24.2-24.15h-13.47v58.78c0,.57-.05,1.15-.18,1.67-.78,3.62-3.96,6.31-7.79,6.31-2.19,0-4.19-.89-5.63-2.34-1.46-1.43-2.34-3.44-2.34-5.63v-65.37c0-4.56,3.67-8.23,8.23-8.23h21.81c21.57,0,39.08,17.43,39.08,38.98Z"/>
    <path class="cls-2" d="m1028.2,802.61v1.3c0,4.25-3.41,7.66-7.63,7.66h-36.27c-4.04,0-7.32-3.28-7.32-7.3v-66.91c0-4.09,3.31-7.37,7.37-7.37h8.05v.05c.29-.03.57-.05.89-.05h5.47c4.92,0,8.94,3.99,8.94,8.91,0,2.48-.99,4.72-2.63,6.33-1.62,1.62-3.83,2.61-6.31,2.61h-5.47c-.31,0-.6-.03-.89-.05v15.68h24.39c2.11,0,4.01.86,5.39,2.24,1.38,1.38,2.24,3.28,2.24,5.42,0,4.22-3.41,7.63-7.63,7.63h-24.39v16.18h28.16c4.22,0,7.63,3.44,7.63,7.66Z"/>
  </g>
  <g>
    <path class="cls-5" d="m540,365.61c-26.99,0-48.95-21.96-48.95-48.95s21.96-48.95,48.95-48.95,48.95,21.96,48.95,48.95-21.96,48.95-48.95,48.95Zm0-81.9c-18.17,0-32.95,14.78-32.95,32.95s14.78,32.95,32.95,32.95,32.95-14.78,32.95-32.95-14.78-32.95-32.95-32.95Z"/>
    <path class="cls-5" d="m459.51,453.32c6.08,1.37,10.29,3.69,12.61,6.85,2.39,3.2,3.51,8.64,3.51,16.33v18.75c0,6.39.95,10.57,2.77,12.54,1.83,1.97,5.34,3.02,10.68,3.02.25,0,.6-.04,1.12-.07.11,0,.21-.04.32-.04h.25c1.09.07,1.97.98,1.97,2.11v12.08c0,1.09-.84,1.97-1.93,2.11h-.28c-.25,0-.53.03-.84.03-1.26.04-2.21.04-2.88.04-5.16,0-9.52-.28-12.99-.88-3.51-.67-6.46-1.62-8.96-2.92-2.91-1.76-5.06-4.14-6.25-7.16-1.23-2.95-1.86-8.15-1.86-15.56v-19.63c0-7.13-1.33-12.19-3.97-15.14-1.97-2.25-5.02-3.69-8.99-4.21-.11,0-.21,0-.28-.07-4.14-.49-7.38-4-7.38-8.22s2.84-7.45,6.67-8.18c.07-.07.11-.07.21-.07.35-.04.67-.07.98-.07,3.86-.63,6.78-2,8.75-4.21,2.67-3.02,4-8.11,4-15.31v-19.53c0-7.45.63-12.68,1.86-15.66,1.19-3.02,3.34-5.41,6.25-7.16,2.49-1.33,5.44-2.28,8.96-2.92,3.48-.6,7.83-.91,12.99-.91.67,0,1.62,0,2.88.07h1.09c1.09.07,1.97.98,1.97,2.11v12.05c0,1.09-.84,2-1.97,2.11h-.25c-.67,0-1.16-.04-1.44-.04-5.23,0-8.85.98-10.64,3.02-1.86,2-2.81,6.22-2.81,12.64v18.79c0,7.69-1.12,13.17-3.51,16.4-2.32,3.16-6.53,5.51-12.61,6.92Z"/>
    <path class="cls-5" d="m540.32,600.21c2.74-12.16,7.38-20.59,13.71-25.23,6.4-4.78,17.29-7.03,32.68-7.03h37.53c12.79,0,21.16-1.9,25.09-5.55,3.94-3.65,6.04-10.68,6.04-21.37,0-.49-.07-1.19-.14-2.25,0-.21-.07-.42-.07-.63v-.49c.14-2.18,1.97-3.94,4.22-3.94h24.18c2.18,0,3.94,1.69,4.22,3.87v.56c0,.49.07,1.05.07,1.69.07,2.53.07,4.43.07,5.76,0,10.33-.56,19.05-1.76,26-1.34,7.03-3.23,12.93-5.83,17.92-3.51,5.83-8.29,10.12-14.34,12.51-5.9,2.46-16.31,3.73-31.14,3.73h-39.29c-14.27,0-24.39,2.67-30.29,7.94-4.5,3.94-7.38,10.05-8.43,17.99,0,.21,0,.42-.14.56-.98,8.29-8.01,14.76-16.45,14.76s-14.9-5.69-16.38-13.35c-.14-.14-.14-.21-.14-.42-.07-.7-.14-1.34-.14-1.97-1.27-7.73-4.01-13.56-8.43-17.5-6.04-5.34-16.24-8.01-30.64-8.01h-39.08c-14.9,0-25.37-1.27-31.35-3.73-6.04-2.39-10.82-6.68-14.34-12.51-2.67-4.99-4.57-10.89-5.83-17.92-1.19-6.96-1.83-15.67-1.83-26,0-1.34,0-3.23.14-5.76v-2.18c.14-2.18,1.97-3.94,4.22-3.94h24.11c2.18,0,4.01,1.69,4.22,3.94v.49c0,1.34-.07,2.32-.07,2.88,0,10.47,1.97,17.71,6.04,21.3,4.01,3.72,12.44,5.62,25.3,5.62h37.6c15.39,0,26.36,2.25,32.82,7.03,6.33,4.64,11.03,13.07,13.85,25.23Z"/>
    <path class="cls-5" d="m620.52,453.32c-6.08,1.37-10.29,3.69-12.61,6.85-2.39,3.2-3.51,8.64-3.51,16.33v18.75c0,6.39-.95,10.57-2.77,12.54-1.83,1.97-5.34,3.02-10.68,3.02-.25,0-.6-.04-1.12-.07-.11,0-.21-.04-.32-.04h-.25c-1.09.07-1.97.98-1.97,2.11v12.08c0,1.09.84,1.97,1.93,2.11h.28c.25,0,.53.03.84.03,1.26.04,2.21.04,2.88.04,5.16,0,9.52-.28,12.99-.88,3.51-.67,6.46-1.62,8.96-2.92,2.91-1.76,5.06-4.14,6.25-7.16,1.23-2.95,1.86-8.15,1.86-15.56v-19.63c0-7.13,1.33-12.19,3.97-15.14,1.97-2.25,5.02-3.69,8.99-4.21.11,0,.21,0,.28-.07,4.14-.49,7.38-4,7.38-8.22s-2.84-7.45-6.67-8.18c-.07-.07-.11-.07-.21-.07-.35-.04-.67-.07-.98-.07-3.86-.63-6.78-2-8.75-4.21-2.67-3.02-4-8.11-4-15.31v-19.53c0-7.45-.63-12.68-1.86-15.66-1.19-3.02-3.34-5.41-6.25-7.16-2.49-1.33-5.44-2.28-8.96-2.92-3.48-.6-7.83-.91-12.99-.91-.67,0-1.62,0-2.88.07h-1.09c-1.09.07-1.97.98-1.97,2.11v12.05c0,1.09.84,2,1.97,2.11h.25c.67,0,1.16-.04,1.44-.04,5.23,0,8.85.98,10.64,3.02,1.86,2,2.81,6.22,2.81,12.64v18.79c0,7.69,1.12,13.17,3.51,16.4,2.32,3.16,6.53,5.51,12.61,6.92Z"/>
    <path class="cls-5" d="m606.96,661.39c4.31,1.67,6.78,3.52,6.78,5.47,0,7.26-33.19,13.15-74.13,13.15s-74.13-5.89-74.13-13.15c0-1.95,2.47-3.8,6.78-5.47-12.08,2.26-19.33,5.14-19.33,8.28,0,7.26,38.81,13.15,86.68,13.15s86.68-5.89,86.68-13.15c0-3.14-7.25-6.02-19.33-8.28Z"/>
    <g>
      <path class="cls-2" d="m513.77,379.26c.62-.06.51.12.58.24l.15.38c.18.45.73,1.8.91,2.28,11.89,29.66,25.94,64.3,37.66,94.11,3.5,10.03-11.29,14.94-14.42,4.69-8.06-31.03-17.07-67.25-24.9-98.26l-.4-1.59-.2-.79-.1-.4c-.01-.14-.2-.22.33-.54.12-.07.25-.11.38-.12h0Z"/>
      <path class="cls-2" d="m561.07,527.07s15.08-27.59-3.62-38.41c-13.2-5.73-16.98,5.5-13.17,15.26,3.81,9.76,16.63,10.66,16.79,23.15Z"/>
    </g>
  </g>
</svg>